<svg xmlns="http://www.w3.org/2000/svg" xmlns:xlink="http://www.w3.org/1999/xlink" width="900" zoomAndPan="magnify" viewBox="0 0 675 299.25" height="399" preserveAspectRatio="xMidYMid meet" version="1.2"><defs><clipPath id="36d794a277"><path d="M 0.84375 0 L 674.15625 0 L 674.15625 298.5 L 0.84375 298.5 Z M 0.84375 0 "/></clipPath><clipPath id="480097d8b4"><path d="M 0.84375 164 L 674.15625 164 L 674.15625 298.5 L 0.84375 298.5 Z M 0.84375 164 "/></clipPath></defs><g id="1c2f2d7ba2"><g clip-rule="nonzero" clip-path="url(#36d794a277)"><path style=" stroke:none;fill-rule:nonzero;fill:#ffffff;fill-opacity:1;" d="M 0.84375 0 L 674.15625 0 L 674.15625 298.5 L 0.84375 298.5 Z M 0.84375 0 "/><path style=" stroke:none;fill-rule:nonzero;fill:#ffffff;fill-opacity:1;" d="M 0.84375 0 L 674.15625 0 L 674.15625 298.5 L 0.84375 298.5 Z M 0.84375 0 "/></g><g clip-rule="nonzero" clip-path="url(#480097d8b4)"><path style=" stroke:none;fill-rule:nonzero;fill:#017474;fill-opacity:1;" d="M 682.242188 427.539062 L -56.519531 427.539062 L -56.519531 192.6875 C -18.246094 176.089844 38.871094 158.121094 103.351562 167.152344 C 178.226562 177.636719 219.214844 218.382812 257.007812 240.109375 C 323.175781 278.144531 443.707031 294.832031 682.539062 192.996094 Z M 682.242188 427.539062 "/></g></g></svg>